{
  "accessors": [
    {
      "bufferView": 3,
      "componentType": 5126,
      "count": 320,
      "max": [
        10.3781156539917,
        9.165017127990723,
        0.051701001822948456
      ],
      "min": [
        -10.3781156539917,
        -4.92751407623291,
        -4.771331787109375
      ],
      "type": "VEC3"
    },
    {
      "bufferView": 3,
      "byteOffset": 3840,
      "componentType": 5126,
      "count": 320,
      "max": [
        0.6402011513710022,
        0.45198628306388855,
        0.9630279541015625
      ],
      "min": [
        -0.6402011513710022,
        -0.45198628306388855,
        -0.9630279541015625
      ],
      "type": "VEC3"
    },
    {
      "bufferView": 2,
      "componentType": 5126,
      "count": 320,
      "max": [
        0.9693419933319092,
        0.9472789764404297
      ],
      "min": [
        0.040748998522758484,
        0.03950300067663193
      ],
      "type": "VEC2"
    },
    {
      "bufferView": 1,
      "componentType": 5125,
      "count": 1248,
      "type": "SCALAR"
    },
    {
      "bufferView": 3,
      "byteOffset": 7680,
      "componentType": 5126,
      "count": 473,
      "max": [
        3.1789960861206055,
        3.1789960861206055,
        3.180759906768799
      ],
      "min": [
        -3.1789960861206055,
        -3.1789960861206055,
        -3.1772310733795166
      ],
      "type": "VEC3"
    },
    {
      "bufferView": 3,
      "byteOffset": 13356,
      "componentType": 5126,
      "count": 473,
      "max": [
        1.0,
        1.0,
        1.0
      ],
      "min": [
        -1.0,
        -1.0,
        -1.0
      ],
      "type": "VEC3"
    },
    {
      "bufferView": 2,
      "byteOffset": 2560,
      "componentType": 5126,
      "count": 473,
      "max": [
        0.9768919944763184,
        0.969694972038269
      ],
      "min": [
        0.5356680154800415,
        0.030288999900221825
      ],
      "type": "VEC2"
    },
    {
      "bufferView": 1,
      "byteOffset": 4992,
      "componentType": 5125,
      "count": 2688,
      "type": "SCALAR"
    },
    {
      "bufferView": 5,
      "componentType": 5126,
      "count": 5,
      "max": [
        1.0,
        0.0,
        0.997895359992981,
        0.0,
        1.0,
        1.0,
        3.220640678591735e-07,
        0.0,
        0.0,
        0.997895359992981,
        1.0,
        0.0,
        1.5334497049934726e-07,
        2.177175283432007,
        0.0014659082517027855,
        1.0
      ],
      "min": [
        -3.159289576615265e-07,
        -1.0,
        -3.9488082848038175e-07,
        0.0,
        0.0,
        -2.4532673137400707e-07,
        0.0,
        0.0,
        -1.0486594703706942e-07,
        -3.9488082848038175e-07,
        0.06484484672546387,
        0.0,
        -1.5420089027884387e-07,
        -2.177175998687744,
        -1.3812656334266649e-06,
        1.0
      ],
      "type": "MAT4"
    },
    {
      "bufferView": 0,
      "componentType": 5123,
      "count": 320,
      "type": "VEC4"
    },
    {
      "bufferView": 4,
      "componentType": 5126,
      "count": 320,
      "max": [
        1.0,
        0.0,
        0.0,
        0.0
      ],
      "min": [
        1.0,
        0.0,
        0.0,
        0.0
      ],
      "type": "VEC4"
    },
    {
      "bufferView": 0,
      "byteOffset": 2560,
      "componentType": 5123,
      "count": 473,
      "type": "VEC4"
    },
    {
      "bufferView": 4,
      "byteOffset": 5120,
      "componentType": 5126,
      "count": 473,
      "max": [
        1.0,
        0.0,
        0.0,
        0.0
      ],
      "min": [
        1.0,
        0.0,
        0.0,
        0.0
      ],
      "type": "VEC4"
    },
    {
      "bufferView": 6,
      "componentType": 5126,
      "count": 1,
      "max": [
        0.0
      ],
      "min": [
        0.0
      ],
      "type": "SCALAR"
    },
    {
      "bufferView": 7,
      "componentType": 5126,
      "count": 1,
      "max": [
        -1.065121679744152e-08,
        0.14108401536941528,
        -2.171128034591675
      ],
      "min": [
        -1.065121679744152e-08,
        0.14108401536941528,
        -2.171128034591675
      ],
      "type": "VEC3"
    },
    {
      "bufferView": 6,
      "byteOffset": 4,
      "componentType": 5126,
      "count": 22,
      "max": [
        1.2916666269302368
      ],
      "min": [
        0.0
      ],
      "type": "SCALAR"
    },
    {
      "bufferView": 7,
      "byteOffset": 12,
      "componentType": 5126,
      "count": 22,
      "max": [
        1.0,
        1.0,
        1.0
      ],
      "min": [
        1.0,
        0.9999999403953552,
        0.9999999403953552
      ],
      "type": "VEC3"
    },
    {
      "bufferView": 6,
      "byteOffset": 92,
      "componentType": 5126,
      "count": 62,
      "max": [
        1.2916666269302368
      ],
      "min": [
        0.0
      ],
      "type": "SCALAR"
    },
    {
      "bufferView": 8,
      "componentType": 5126,
      "count": 62,
      "max": [
        0.9410337805747986,
        0.010508175939321518,
        0.05815451219677925,
        0.7296727895736694
      ],
      "min": [
        -0.8369537591934204,
        -0.020432492718100548,
        -0.029933713376522064,
        -0.48713305592536926
      ],
      "type": "VEC4"
    },
    {
      "bufferView": 6,
      "byteOffset": 340,
      "componentType": 5126,
      "count": 1,
      "max": [
        0.0
      ],
      "min": [
        0.0
      ],
      "type": "SCALAR"
    },
    {
      "bufferView": 7,
      "byteOffset": 276,
      "componentType": 5126,
      "count": 1,
      "max": [
        1.0665536009923926e-08,
        -0.14127500355243683,
        2.1740589141845703
      ],
      "min": [
        1.0665536009923926e-08,
        -0.14127500355243683,
        2.1740589141845703
      ],
      "type": "VEC3"
    },
    {
      "bufferView": 6,
      "byteOffset": 344,
      "componentType": 5126,
      "count": 18,
      "max": [
        1.2916666269302368
      ],
      "min": [
        0.0
      ],
      "type": "SCALAR"
    },
    {
      "bufferView": 7,
      "byteOffset": 288,
      "componentType": 5126,
      "count": 18,
      "max": [
        1.0,
        1.0,
        1.0
      ],
      "min": [
        1.0,
        0.9999999403953552,
        0.9999999403953552
      ],
      "type": "VEC3"
    },
    {
      "bufferView": 6,
      "byteOffset": 416,
      "componentType": 5126,
      "count": 62,
      "max": [
        1.2916666269302368
      ],
      "min": [
        0.0
      ],
      "type": "SCALAR"
    },
    {
      "bufferView": 8,
      "byteOffset": 992,
      "componentType": 5126,
      "count": 62,
      "max": [
        -0.27092793583869934,
        0.05934706702828407,
        -8.116440801246051e-15,
        0.960624635219574
      ],
      "min": [
        -0.6837964653968811,
        -5.1625203667526876e-08,
        -0.01662066951394081,
        0.7296727895736694
      ],
      "type": "VEC4"
    },
    {
      "bufferView": 6,
      "byteOffset": 664,
      "componentType": 5126,
      "count": 62,
      "max": [
        1.2916666269302368
      ],
      "min": [
        0.0
      ],
      "type": "SCALAR"
    },
    {
      "bufferView": 7,
      "byteOffset": 504,
      "componentType": 5126,
      "count": 62,
      "max": [
        -1.1641500263781523e-10,
        0.0014690000098198652,
        3.144627094268799
      ],
      "min": [
        -1.1641500263781523e-10,
        0.0014690000098198652,
        0.0
      ],
      "type": "VEC3"
    },
    {
      "bufferView": 6,
      "byteOffset": 912,
      "componentType": 5126,
      "count": 1,
      "max": [
        0.0
      ],
      "min": [
        0.0
      ],
      "type": "SCALAR"
    },
    {
      "bufferView": 8,
      "byteOffset": 1984,
      "componentType": 5126,
      "count": 1,
      "max": [
        0.7067347168922424,
        -0.022938163951039314,
        0.7067345380783081,
        0.022938169538974762
      ],
      "min": [
        0.7067347168922424,
        -0.022938163951039314,
        0.7067345380783081,
        0.022938169538974762
      ],
      "type": "VEC4"
    }
  ],
  "animations": [
    {
      "channels": [
        {
          "sampler": 0,
          "target": {
            "node": 11,
            "path": "translation"
          }
        },
        {
          "sampler": 1,
          "target": {
            "node": 11,
            "path": "scale"
          }
        },
        {
          "sampler": 2,
          "target": {
            "node": 11,
            "path": "rotation"
          }
        },
        {
          "sampler": 3,
          "target": {
            "node": 12,
            "path": "translation"
          }
        },
        {
          "sampler": 4,
          "target": {
            "node": 12,
            "path": "scale"
          }
        },
        {
          "sampler": 5,
          "target": {
            "node": 12,
            "path": "rotation"
          }
        },
        {
          "sampler": 6,
          "target": {
            "node": 10,
            "path": "translation"
          }
        },
        {
          "sampler": 7,
          "target": {
            "node": 10,
            "path": "rotation"
          }
        }
      ],
      "name": "idle",
      "samplers": [
        {
          "input": 13,
          "interpolation": "LINEAR",
          "output": 14
        },
        {
          "input": 15,
          "interpolation": "LINEAR",
          "output": 16
        },
        {
          "input": 17,
          "interpolation": "LINEAR",
          "output": 18
        },
        {
          "input": 19,
          "interpolation": "LINEAR",
          "output": 20
        },
        {
          "input": 21,
          "interpolation": "LINEAR",
          "output": 22
        },
        {
          "input": 23,
          "interpolation": "LINEAR",
          "output": 24
        },
        {
          "input": 25,
          "interpolation": "LINEAR",
          "output": 26
        },
        {
          "input": 27,
          "interpolation": "LINEAR",
          "output": 28
        }
      ]
    }
  ],
  "asset": {
    "extras": {
      "author": "Lumhax (https://sketchfab.com/lumhax)",
      "license": "CC-BY-4.0 (http://creativecommons.org/licenses/by/4.0/)",
      "source": "https://sketchfab.com/3d-models/fairy-the-legend-of-zelda-botw-ce8425ea1cfb40e492906bb62d970969",
      "title": "Fairy | The Legend of Zelda: BOTW"
    },
    "generator": "Sketchfab-12.63.0",
    "version": "2.0"
  },
  "bufferViews": [
    {
      "buffer": 0,
      "byteLength": 6344,
      "byteStride": 8,
      "name": "shortBufferViews",
      "target": 34962
    },
    {
      "buffer": 0,
      "byteLength": 15744,
      "byteOffset": 6344,
      "name": "floatBufferViews",
      "target": 34963
    },
    {
      "buffer": 0,
      "byteLength": 6344,
      "byteOffset": 22088,
      "byteStride": 8,
      "name": "floatBufferViews",
      "target": 34962
    },
    {
      "buffer": 0,
      "byteLength": 19032,
      "byteOffset": 28432,
      "byteStride": 12,
      "name": "floatBufferViews",
      "target": 34962
    },
    {
      "buffer": 0,
      "byteLength": 12688,
      "byteOffset": 47464,
      "byteStride": 16,
      "name": "floatBufferViews",
      "target": 34962
    },
    {
      "buffer": 0,
      "byteLength": 320,
      "byteOffset": 60152,
      "name": "floatBufferViews"
    },
    {
      "buffer": 0,
      "byteLength": 916,
      "byteOffset": 60472,
      "name": "floatBufferViews"
    },
    {
      "buffer": 0,
      "byteLength": 1248,
      "byteOffset": 61388,
      "byteStride": 12,
      "name": "floatBufferViews"
    },
    {
      "buffer": 0,
      "byteLength": 2000,
      "byteOffset": 62636,
      "byteStride": 16,
      "name": "floatBufferViews"
    }
  ],
  "buffers": [
    {
      "byteLength": 64636,
      "uri": "scene.bin"
    }
  ],
  "images": [
    {
      "uri": "textures/fairy_wings_baseColor.png"
    },
    {
      "uri": "textures/fairy_navi_baseColor.png"
    }
  ],
  "materials": [
    {
      "alphaMode": "BLEND",
      "doubleSided": true,
      "name": "fairy_wings",
      "pbrMetallicRoughness": {
        "baseColorFactor": [
          1.0,
          1.0,
          1.0,
          0.25
        ],
        "baseColorTexture": {
          "index": 0
        },
        "metallicFactor": 0.0,
        "roughnessFactor": 0.6
      }
    },
    {
      "alphaMode": "BLEND",
      "doubleSided": true,
      "emissiveFactor": [
        1.0,
        1.0,
        1.0
      ],
      "name": "fairy_navi",
      "pbrMetallicRoughness": {
        "baseColorFactor": [
          0.0,
          0.0,
          0.0,
          0.540967987804878
        ],
        "baseColorTexture": {
          "index": 1
        },
        "metallicFactor": 0.0,
        "roughnessFactor": 0.6
      }
    }
  ],
  "meshes": [
    {
      "name": "fairy_reference_001_fairy_wings_0",
      "primitives": [
        {
          "attributes": {
            "JOINTS_0": 9,
            "NORMAL": 1,
            "POSITION": 0,
            "TEXCOORD_0": 2,
            "WEIGHTS_0": 10
          },
          "indices": 3,
          "material": 0,
          "mode": 4
        }
      ]
    },
    {
      "name": "fairy_reference_001_fairy_navi_0",
      "primitives": [
        {
          "attributes": {
            "JOINTS_0": 11,
            "NORMAL": 5,
            "POSITION": 4,
            "TEXCOORD_0": 6,
            "WEIGHTS_0": 12
          },
          "indices": 7,
          "material": 1,
          "mode": 4
        }
      ]
    }
  ],
  "nodes": [
    {
      "children": [
        1
      ],
      "matrix": [
        0.08753114193677902,
        0.0,
        0.0,
        0.0,
        0.0,
        1.9435817829988938e-17,
        -0.08753114193677902,
        0.0,
        0.0,
        0.08753114193677902,
        1.9435817829988938e-17,
        0.0,
        5.8328336308477446e-05,
        -2.404978513717652,
        2.6537337303161617,
        1.0
      ],
      "name": "Sketchfab_model"
    },
    {
      "children": [
        2
      ],
      "matrix": [
        1.0,
        0.0,
        0.0,
        0.0,
        0.0,
        0.0,
        1.0,
        0.0,
        0.0,
        -1.0,
        0.0,
        0.0,
        0.0,
        0.0,
        0.0,
        1.0
      ],
      "name": "Navi.fbx"
    },
    {
      "children": [
        3
      ],
      "name": "Object_2"
    },
    {
      "children": [
        4
      ],
      "name": "RootNode"
    },
    {
      "children": [
        5,
        7,
        8,
        6,
        13
      ],
      "name": "Object_4"
    },
    {
      "children": [
        9
      ],
      "name": "_rootJoint"
    },
    {
      "matrix": [
        1.0000000036424606,
        -6.977416432952763e-16,
        3.00454106039183e-14,
        0.0,
        3.0045410603915913e-14,
        6.056436694993041e-15,
        -1.0000000036423808,
        0.0,
        6.977416407536685e-16,
        1.0000000000001013,
        6.056436672933826e-15,
        0.0,
        -3.670005467061588e-11,
        -3.515993150001512e-16,
        5.599259527170816e-13,
        1.0
      ],
      "name": "Object_6"
    },
    {
      "mesh": 0,
      "name": "Object_7",
      "skin": 0
    },
    {
      "mesh": 1,
      "name": "Object_8",
      "skin": 0
    },
    {
      "children": [
        10
      ],
      "name": "fairy_qc_skeleton_00",
      "rotation": [
        -0.7071068286895752,
        0.0,
        0.0,
        0.7071067094802856
      ]
    },
    {
      "children": [
        11,
        12
      ],
      "name": "fairy_root_01",
      "rotation": [
        0.706734836101532,
        -0.022938072681427002,
        0.7067345380783081,
        0.022938081994652748
      ],
      "translation": [
        -0.0014690000098198652,
        -0.0,
        0.0
      ]
    },
    {
      "name": "fairy_wings_R_02",
      "rotation": [
        -0.6837966442108154,
        -5.1625207220240554e-08,
        1.1870240101724723e-14,
        0.7296726703643799
      ],
      "scale": [
        1.0,
        0.9999998807907104,
        0.9999998807907104
      ],
      "translation": [
        -6.420265208362252e-08,
        0.14108388125896454,
        -2.1711275577545166
      ]
    },
    {
      "name": "fairy_wings_L_03",
      "rotation": [
        -0.6837966442108154,
        -5.1625207220240554e-08,
        1.1870240101724723e-14,
        0.7296726703643799
      ],
      "scale": [
        1.0,
        0.9999998807907104,
        0.9999998807907104
      ],
      "translation": [
        6.421696951974809e-08,
        -0.14127489924430847,
        2.174058675765991
      ]
    },
    {
      "name": "fairy_reference_001"
    }
  ],
  "samplers": [
    {
      "magFilter": 9729,
      "minFilter": 9987,
      "wrapS": 10497,
      "wrapT": 10497
    }
  ],
  "scene": 0,
  "scenes": [
    {
      "name": "Sketchfab_Scene",
      "nodes": [
        0
      ]
    }
  ],
  "skins": [
    {
      "inverseBindMatrices": 8,
      "joints": [
        5,
        9,
        10,
        11,
        12
      ],
      "skeleton": 5
    }
  ],
  "textures": [
    {
      "sampler": 0,
      "source": 0
    },
    {
      "sampler": 0,
      "source": 1
    }
  ]
}
